<svg width="31" height="14" viewBox="0 0 31 14" fill="none" xmlns="http://www.w3.org/2000/svg">
<path d="M0.684 13C0.576 13 0.48 12.964 0.396 12.892C0.324 12.808 0.288 12.712 0.288 12.604C0.288 12.568 0.294 12.526 0.306 12.478C0.318 12.418 0.342 12.364 0.378 12.316L3.384 8.194L0.648 4.324C0.612 4.276 0.582 4.228 0.558 4.18C0.546 4.132 0.54 4.084 0.54 4.036C0.54 3.928 0.582 3.838 0.666 3.766C0.75 3.682 0.846 3.64 0.954 3.64H3.15C3.306 3.64 3.42 3.676 3.492 3.748C3.576 3.82 3.636 3.886 3.672 3.946L5.346 6.268L7.002 3.964C7.05 3.904 7.11 3.838 7.182 3.766C7.266 3.682 7.386 3.64 7.542 3.64H9.648C9.756 3.64 9.846 3.682 9.918 3.766C10.002 3.838 10.044 3.928 10.044 4.036C10.044 4.084 10.038 4.132 10.026 4.18C10.014 4.228 9.99 4.276 9.954 4.324L7.146 8.194L10.188 12.316C10.236 12.364 10.266 12.412 10.278 12.46C10.29 12.508 10.296 12.556 10.296 12.604C10.296 12.712 10.254 12.808 10.17 12.892C10.098 12.964 10.002 13 9.882 13H7.596C7.452 13 7.344 12.97 7.272 12.91C7.2 12.838 7.14 12.772 7.092 12.712L5.274 10.246L3.438 12.712C3.39 12.76 3.33 12.82 3.258 12.892C3.186 12.964 3.072 13 2.916 13H0.684ZM15.208 13C15.088 13 14.98 12.958 14.884 12.874C14.8 12.79 14.758 12.682 14.758 12.55V3.982L12.292 5.872C12.184 5.956 12.07 5.986 11.95 5.962C11.842 5.938 11.746 5.872 11.662 5.764L10.6 4.378C10.528 4.27 10.498 4.156 10.51 4.036C10.534 3.904 10.606 3.802 10.726 3.73L14.866 0.526C14.938 0.478 15.004 0.448 15.064 0.436C15.136 0.411999 15.214 0.399999 15.298 0.399999H17.548C17.668 0.399999 17.77 0.441999 17.854 0.526C17.95 0.609999 17.998 0.717999 17.998 0.85V12.55C17.998 12.682 17.95 12.79 17.854 12.874C17.77 12.958 17.668 13 17.548 13H15.208ZM24.9113 13.18C24.0473 13.18 23.2973 13.06 22.6613 12.82C22.0253 12.568 21.4973 12.226 21.0773 11.794C20.6693 11.362 20.3573 10.858 20.1413 10.282C19.9253 9.706 19.7993 9.088 19.7633 8.428C19.7513 8.104 19.7393 7.738 19.7273 7.33C19.7273 6.91 19.7273 6.49 19.7273 6.07C19.7393 5.638 19.7513 5.254 19.7633 4.918C19.7993 4.258 19.9253 3.646 20.1413 3.082C20.3693 2.506 20.6933 2.008 21.1133 1.588C21.5453 1.156 22.0733 0.819999 22.6973 0.579999C23.3333 0.339999 24.0713 0.219999 24.9113 0.219999C25.7633 0.219999 26.5013 0.339999 27.1253 0.579999C27.7493 0.819999 28.2713 1.156 28.6913 1.588C29.1233 2.008 29.4533 2.506 29.6813 3.082C29.9093 3.646 30.0353 4.258 30.0593 4.918C30.0833 5.254 30.0953 5.638 30.0953 6.07C30.1073 6.49 30.1073 6.91 30.0953 7.33C30.0953 7.738 30.0833 8.104 30.0593 8.428C30.0353 9.088 29.9093 9.706 29.6813 10.282C29.4653 10.858 29.1473 11.362 28.7273 11.794C28.3193 12.226 27.7973 12.568 27.1613 12.82C26.5373 13.06 25.7873 13.18 24.9113 13.18ZM24.9113 10.57C25.5353 10.57 25.9853 10.372 26.2613 9.976C26.5493 9.568 26.6993 9.022 26.7113 8.338C26.7353 7.99 26.7473 7.624 26.7473 7.24C26.7593 6.856 26.7593 6.472 26.7473 6.088C26.7473 5.704 26.7353 5.35 26.7113 5.026C26.6993 4.366 26.5493 3.832 26.2613 3.424C25.9853 3.016 25.5353 2.806 24.9113 2.794C24.2873 2.806 23.8373 3.016 23.5613 3.424C23.2853 3.832 23.1353 4.366 23.1113 5.026C23.0993 5.35 23.0873 5.704 23.0753 6.088C23.0753 6.472 23.0753 6.856 23.0753 7.24C23.0873 7.624 23.0993 7.99 23.1113 8.338C23.1353 9.022 23.2913 9.568 23.5793 9.976C23.8673 10.372 24.3113 10.57 24.9113 10.57Z" fill="#FE881C"/>
</svg>
