<svg width="57" height="33" viewBox="0 0 57 33" fill="none" xmlns="http://www.w3.org/2000/svg">
<path d="M56.7076 16.4967V16.4327C56.6517 7.3844 43.9273 0 28.3538 0C12.7802 0 0 7.3844 0 16.4967C0 25.6101 12.7224 32.9797 28.3538 32.9797C35.5265 32.9825 42.4249 31.4011 47.6139 28.5646C48.1249 28.2971 48.4296 27.9244 48.4608 27.5282C48.492 27.1321 48.2473 26.7451 47.7803 26.4524C47.3134 26.1597 46.6626 25.9851 45.9711 25.9673C45.2795 25.9494 44.6039 26.0896 44.0928 26.357L44.037 26.389C41.7981 27.6082 39.1522 28.5556 36.2582 29.1744C33.3641 29.7932 30.2816 30.0707 27.1957 29.9902C24.1097 29.9097 21.084 29.4728 18.3002 28.7058C15.5164 27.9388 13.0319 26.8575 10.9958 25.5268L23.1081 14.4011V19.5494C23.1081 22.0093 24.7829 22.8099 26.1905 23.0337C27.5981 23.2576 29.7096 23.0954 31.9965 21.018L38.6418 14.8373C38.8192 14.6569 39.0246 14.4856 39.2519 14.3246V17.4594C39.2519 19.7606 40.8708 21.6153 43.6602 22.5095C44.9478 22.9111 46.4012 23.1054 47.8662 23.0718C49.3311 23.0383 50.7528 22.778 51.9803 22.3188C55.2022 21.1208 56.9329 19.0229 56.7076 16.4967ZM49.3385 19.7344C48.891 19.9109 48.3694 20.0158 47.8274 20.0381C47.2855 20.0603 46.743 19.9993 46.2561 19.8611C45.1396 19.4786 44.4676 18.6163 44.4676 17.4332V13.8095C44.4676 12.085 43.2953 10.8368 41.2875 10.5193C37.8801 9.93 35.3161 12.3408 34.3651 13.2362L28.3538 18.7659V11.9571C28.298 10.3914 27.4027 9.46405 25.728 9.17511C24.6114 8.98439 22.9366 9.08147 21.3197 10.4885L7.86752 22.8281C6.07794 20.8749 5.14009 18.7026 5.13403 16.4967C5.13403 9.0472 15.5696 3.0047 28.3538 3.0047C41.138 3.0047 51.5735 9.0472 51.5735 16.4967V16.5618C51.7071 17.9985 50.9016 19.1519 49.3405 19.7252L49.3385 19.7344Z" fill="white"/>
</svg>
