<svg width="25" height="24" viewBox="0 0 25 24" fill="none" xmlns="http://www.w3.org/2000/svg">
<path fill-rule="evenodd" clip-rule="evenodd" d="M24.4918 12.0407C24.4992 12.0351 24.5066 12.0295 24.5138 12.0237C24.5138 12.0201 24.5138 12.0166 24.5138 12.013C24.5138 12.0099 24.5138 12.0067 24.5139 12.0036C24.5113 12.0018 24.5085 12.0001 24.5058 11.9984C24.5 11.9949 24.4943 11.9914 24.4896 11.9867C24.0554 11.5524 23.6213 11.118 23.1872 10.6836C22.7517 10.2477 22.3161 9.81182 21.8804 9.376C21.8634 9.35903 21.8449 9.34363 21.8326 9.33345C21.8285 9.33004 21.8251 9.32722 21.8227 9.32512L19.1345 12.0132L21.8216 14.7004C21.8274 14.6948 21.8338 14.6887 21.8406 14.6822C21.8585 14.665 21.8793 14.6451 21.8996 14.6248C22.1422 14.3822 22.3848 14.1396 22.6274 13.8971C23.2336 13.291 23.8397 12.6849 24.4461 12.079C24.4601 12.065 24.476 12.0529 24.4918 12.0407ZM5.12113 7.36544L7.81889 10.0629L12.4866 5.39536L17.1595 10.0682C17.2921 9.96568 19.8194 7.42664 19.8496 7.37232L12.4766 0C12.3696 0.0816 5.15153 7.31112 5.12113 7.36544ZM12.4822 18.6178L7.80921 13.9449C6.90321 14.8482 6.00441 15.7443 5.11721 16.6291L12.488 24L19.8577 16.6307L17.1659 13.9424L16.6393 14.4689L16.1214 14.9868L15.6034 15.5047L15.0855 16.0226L14.5605 16.5476L14.0426 17.0655L13.5246 17.5834C13.4728 17.6352 13.4211 17.6871 13.3693 17.739C13.2487 17.86 13.128 17.981 13.0065 18.1011C12.9517 18.1553 12.8976 18.2101 12.8432 18.2651C12.7264 18.3834 12.6087 18.5025 12.4822 18.6178ZM9.7664 12.007L12.4876 14.7281L15.2062 12.0095L12.4851 9.2884L9.7664 12.007ZM3.1612 9.32673L0.486084 12.0018L3.1644 14.6801L5.8392 12.0047L3.1612 9.32673Z" fill="#F4B92E"/>
</svg>
